# xmcd
#
# Track frame offsets: 
#        150
#        15088
#        32208
#        45485
#        63575
#        79373
#        95108
#        109985
#        121123
#        140725
#
# Disc length: 2058 seconds
#
# Revision: 2
# Processed by: cddbd v1.4PL0 Copyright (c) Steve Scherf et al.
# Submitted via: ExactAudioCopy v0.90b4
#
DISCID=8508080a
DTITLE=Rosanne Cash - Interiors
DYEAR=1990
DGENRE=
TTITLE0=On The Inside
TTITLE1=Dance With The Tiger
TTITLE2=On The Surface
TTITLE3=Real Woman
TTITLE4=This World
TTITLE5=What We Really Want
TTITLE6=Mirror Image
TTITLE7=Land Of Nightmares
TTITLE8=I Want A Cure
TTITLE9=Paralyzed
EXTD=
EXTT0=
EXTT1=
EXTT2=
EXTT3=
EXTT4=
EXTT5=
EXTT6=
EXTT7=
EXTT8=
EXTT9=
PLAYORDER=
